<?xml version="1.0" encoding="utf-8"?>
<!-- Generator: Adobe Illustrator 23.0.1, SVG Export Plug-In . SVG Version: 6.00 Build 0)  -->
<svg version="1.1" xmlns="http://www.w3.org/2000/svg" xmlns:xlink="http://www.w3.org/1999/xlink" x="0px" y="0px"
	 viewBox="0 0 926.4 693.6" style="enable-background:new 0 0 926.4 693.6;" xml:space="preserve">
<style type="text/css">
	.st0{fill:#F4CF31;}
	.st1{fill:#FFE057;}
	.st2{fill:#FFFFFF;}
</style>
<g id="Layer_2">
	<g>
		<path class="st0" d="M349.05,268.3c5.01-8.15,7.66-15.78,9.14-21.29c0.9-9.36,2.74-22.5,6.9-37.72
			C391,114.39,471.67,66.99,481.58,61.37c50.33-28.55,95.62-30.71,126.45-32.19c60.82-2.91,83.1,13.69,90.43,19.93
			c6.33,5.38,20.12,17.47,21.46,36.02c1.25,17.38-8.4,33.6-20.38,42.22c-18.99,13.67-46.28,10.18-58.34,6.29
			c-2.96-0.95-11.04-3.88-22.45-4.83c-6.13-0.51-11.21-0.28-14.56,0c2.65,3.1,6.8,7.75,12.26,13.03
			c8.86,8.57,11.48,9.44,14.56,13.79c5.39,7.62,8.54,20.73,3.83,29.12c-8.3,14.82-40.19,12.07-59.78,6.13
			c-23.79-7.21-41.88-22.89-42.92-21.46c-1.02,1.41,19.13,12.99,18.39,28.36c-0.08,1.73-0.61,7.35-4.6,11.5
			c-10.63,11.06-32.17-2.67-75.11-4.6c-13.16-0.59-20.86-0.94-31.42,1.53c-24.97,5.84-40.12,21.41-42.15,19.16
			c-1.53-1.7,4.94-12.93,15.33-21.46c37.33-30.66,104.52-9.42,105.76-16.09c0.41-2.21-7.06-3.83-14.56-13.79
			c-2.53-3.36-8.42-11.18-6.13-15.33c2.93-5.31,17.94-2.22,28.36,0c23.64,5.05,27.95,10.9,47.52,15.33
			c5.53,1.25,36.2,8.19,41.38-1.53c3.47-6.51-5.81-18.02-9.2-22.23c-13.37-16.59-27-15.69-32.19-29.89c-0.69-1.88-4.02-11,0-15.33
			c6.43-6.93,24.12,6.53,55.18,13.03c17.04,3.56,46.68,9.76,63.61-6.13c0.92-0.86,12.02-11.59,10.77-25.29
			c-2.09-22.88-36.88-34.9-46.79-38.32c-30.98-10.7-58.61-5.72-84.3-0.77c-38,7.32-64.83,21.12-71.27,24.52
			c-49.3,26.03-78.75,63.18-93.5,85.84c-23.47,36.06-32.68,70.74-38.32,91.97c-3.89,14.64-6.23,27.11-7.66,36.02
			c-14.05,0.87-18.19-1.39-19.16-3.83C340.88,279.01,344.64,275.46,349.05,268.3z"/>
		<path class="st1" d="M349.05,247.01"/>
		<path class="st0" d="M724.27,555.18c-32.37-11.25-45.33-8.86-47.52-16.35c-3.71-12.72,32.15-24.67,57.22-55.18
			c28.78-35.02,35.74-85.26,28.61-120.58c-16.31-80.79-115.4-128.28-194.15-131.31c-105.45-4.05-175.57,71.57-187,84.3
			c-15.21-24.08-18.08-38.1-17.5-46.62c0.1-1.46,0.62-5.89-1.53-10.65c-1.37-3.05-3.47-5.45-5.78-7.33
			c-2.49-2.03-5.23-3.45-7.58-4.47c-1.53-0.75-3.08-1.48-4.65-2.21c-9.51-4.4-18.84-8.02-27.85-10.98
			c-2.85-9.65-1.3-14.88,0.77-17.88c2.31-3.37,5.24-3.95,9.45-9.2c0.87-1.08,2.96-3.83,5.36-9.2c5.01-11.19,11.5-25.71,5.36-38.32
			c-1.34-2.75-4.16-7.24-10.47-11.24c-2.92,4.37-7.49,10.49-14.05,16.86c-5.28,5.13-13.79,12.29-31.81,21.46
			c-15.83,8.06-22.27,9.16-34.87,14.56c-11.36,4.87-27.46,13.13-45.6,27.59c-4.09,0.77-8.17,1.53-12.26,2.3
			c-2.46-0.5-6.18-1.47-10.35-3.45c-12.54-5.96-15.48-14.65-21.84-14.56c-1.14,0.02-6.37,0.37-13.03,12.65
			c-14.51,26.74-13.55,69,3.07,76.64c5.97,2.74,12.94,0.55,22.61,6.9c3.97,2.61,6.71,5.55,8.43,7.66
			c1.76,4.29,4.42,10.43,8.05,17.63c8.19,16.26,12.29,24.38,19.93,31.81c7.37,7.16,10.65,6.85,20.69,16.86
			c4.86,4.85,8.44,9.25,10.73,12.26c-8.82,2.52-23.03,5.79-40.62,6.13c-33.32,0.65-49.46-9.77-77.02-12.65
			c-16.44-1.72-41.23-1.2-73.19,11.5c-1.43,4.03-3.14,10.68-2.3,18.78c1.72,16.44,12.69,26.52,15.71,29.12
			c15.17,3.85,27.33,4.21,35.64,3.83c6.56-0.3,9.9-1.03,33.34-3.83c3.88-0.46,16.92-2.02,19.93-2.3
			c29.87-2.76,46.77,30.73,97.33,48.28c32.87,11.41,51.97,6.37,62.08,1.92c3.19-1.41,5.68-2.84,7.28-3.83
			c4.59,5.21,11.67,12.79,21.08,21.08c19.2,16.92,46.97,41.38,86.22,45.6c10.11,1.09,37.41,4.02,57.48-12.65
			c2.54-2.11,4.45-4.1,5.71-5.52c4.15,8.28,11.05,19.77,22.26,30.94c27.17,27.08,60.59,33.3,70,34.74
			c38.78,5.95,49.08-11.05,85.84,0c11.9,3.58,26.67,8.02,36.28,21.46c12.15,17,5.15,33.15,15.84,39.34
			c11.95,6.92,36.42-4.17,39.85-18.39c3.16-13.13-12.74-24.17-8.69-30.14c5.63-8.3,38.27,10.13,45.47,1.02
			c5.81-7.34-8.89-27.51-9.71-28.61C777.86,584.65,764.92,569.3,724.27,555.18z"/>
		<g>
			<path class="st0" d="M733.34,354.9c5-6.07,15.2-16.6,31.42-22.23c5.94-2.06,11.45-3.03,16.09-3.45
				c4.97-5.87,9.4-10.9,13.03-14.94c16.77-18.7,22.52-23.11,29.51-23.37c3.79-0.14,8.49,0.91,8.81,2.68
				c0.29,1.57-2.89,3.51-7.28,6.13c-4.11,2.46-7.37,3.9-8.05,4.22c-3.97,1.83-8.94,6.23-13.03,17.63c3.84,0.13,9.43,0.48,16.09,1.53
				c12.36,1.95,21.07,3.33,29.51,9.2c4.08,2.84,14.95,10.39,15.71,22.61c0.72,11.47-7.91,19.86-9.2,21.08
				c-14.16,13.37-41.97,11.89-59.4-1.92c-15.32-12.14-18.15-30.29-18.78-35.64c-3.57,0.2-7.59,0.75-11.88,1.92
				c-15.67,4.26-25.76,14.22-30.66,19.93C734.62,358.48,733.98,356.69,733.34,354.9z"/>
		</g>
		<path class="st2" d="M206.19,252.2c-2.22,2.43-7.37-1.76-12.01,0.77c-1.93,1.05-3.73,3.25-3.47,5.2c0.13,0.94,0.8,2.31,8.83,5.79
			c7.12,3.08,7.31,2.32,9.96,4.09c4.23,2.82,4,4.93,8.43,7.41c2.14,1.19,5.44,3.04,7.66,1.79c3.05-1.71,2.46-8.33,1.53-12.01
			c-0.26-1.03-0.62-2.11-7.41-12.52c-2.29-3.51-4.13-6.27-7.41-9.2c-0.72-0.64-4.69-4.19-5.88-3.32c-0.86,0.64,0.62,3,0.47,7.91
			C206.84,250.39,206.81,251.53,206.19,252.2z"/>
	</g>
</g>
<g id="Layer_3">
</g>
<g id="Layer_4">
</g>
</svg>
